<mxfile host="app.diagrams.net" modified="2021-01-09T04:48:09.361Z" agent="5.0 (Macintosh; Intel Mac OS X 10_15_6) AppleWebKit/537.36 (KHTML, like Gecko) Chrome/87.0.4280.88 Safari/537.36" etag="vKVrniB4dbHn-Kid1Gth" version="14.1.8" type="github">
  <diagram id="Sc9eVE7FiQSjsAITGZLR" name="ページ1">
    <mxGraphModel dx="666" dy="491" grid="1" gridSize="10" guides="1" tooltips="1" connect="1" arrows="1" fold="1" page="1" pageScale="1" pageWidth="827" pageHeight="1169" math="0" shadow="0">
      <root>
        <mxCell id="0" />
        <mxCell id="1" parent="0" />
        <mxCell id="9z4LvnD-65z1aTD6ECzE-55" value="user" style="shape=table;startSize=30;container=1;collapsible=1;childLayout=tableLayout;fixedRows=1;rowLines=0;fontStyle=1;align=center;resizeLast=1;" vertex="1" parent="1">
          <mxGeometry x="20" y="20" width="180" height="150" as="geometry" />
        </mxCell>
        <mxCell id="9z4LvnD-65z1aTD6ECzE-56" value="" style="shape=partialRectangle;collapsible=0;dropTarget=0;pointerEvents=0;fillColor=none;top=0;left=0;bottom=1;right=0;points=[[0,0.5],[1,0.5]];portConstraint=eastwest;" vertex="1" parent="9z4LvnD-65z1aTD6ECzE-55">
          <mxGeometry y="30" width="180" height="30" as="geometry" />
        </mxCell>
        <mxCell id="9z4LvnD-65z1aTD6ECzE-57" value="PK" style="shape=partialRectangle;connectable=0;fillColor=none;top=0;left=0;bottom=0;right=0;fontStyle=1;overflow=hidden;" vertex="1" parent="9z4LvnD-65z1aTD6ECzE-56">
          <mxGeometry width="30" height="30" as="geometry" />
        </mxCell>
        <mxCell id="9z4LvnD-65z1aTD6ECzE-58" value="user_id" style="shape=partialRectangle;connectable=0;fillColor=none;top=0;left=0;bottom=0;right=0;align=left;spacingLeft=6;fontStyle=5;overflow=hidden;" vertex="1" parent="9z4LvnD-65z1aTD6ECzE-56">
          <mxGeometry x="30" width="150" height="30" as="geometry" />
        </mxCell>
        <mxCell id="9z4LvnD-65z1aTD6ECzE-59" value="" style="shape=partialRectangle;collapsible=0;dropTarget=0;pointerEvents=0;fillColor=none;top=0;left=0;bottom=0;right=0;points=[[0,0.5],[1,0.5]];portConstraint=eastwest;" vertex="1" parent="9z4LvnD-65z1aTD6ECzE-55">
          <mxGeometry y="60" width="180" height="30" as="geometry" />
        </mxCell>
        <mxCell id="9z4LvnD-65z1aTD6ECzE-60" value="" style="shape=partialRectangle;connectable=0;fillColor=none;top=0;left=0;bottom=0;right=0;editable=1;overflow=hidden;" vertex="1" parent="9z4LvnD-65z1aTD6ECzE-59">
          <mxGeometry width="30" height="30" as="geometry" />
        </mxCell>
        <mxCell id="9z4LvnD-65z1aTD6ECzE-61" value="nickname" style="shape=partialRectangle;connectable=0;fillColor=none;top=0;left=0;bottom=0;right=0;align=left;spacingLeft=6;overflow=hidden;" vertex="1" parent="9z4LvnD-65z1aTD6ECzE-59">
          <mxGeometry x="30" width="150" height="30" as="geometry" />
        </mxCell>
        <mxCell id="9z4LvnD-65z1aTD6ECzE-62" value="" style="shape=partialRectangle;collapsible=0;dropTarget=0;pointerEvents=0;fillColor=none;top=0;left=0;bottom=0;right=0;points=[[0,0.5],[1,0.5]];portConstraint=eastwest;" vertex="1" parent="9z4LvnD-65z1aTD6ECzE-55">
          <mxGeometry y="90" width="180" height="30" as="geometry" />
        </mxCell>
        <mxCell id="9z4LvnD-65z1aTD6ECzE-63" value="" style="shape=partialRectangle;connectable=0;fillColor=none;top=0;left=0;bottom=0;right=0;editable=1;overflow=hidden;" vertex="1" parent="9z4LvnD-65z1aTD6ECzE-62">
          <mxGeometry width="30" height="30" as="geometry" />
        </mxCell>
        <mxCell id="9z4LvnD-65z1aTD6ECzE-64" value="email" style="shape=partialRectangle;connectable=0;fillColor=none;top=0;left=0;bottom=0;right=0;align=left;spacingLeft=6;overflow=hidden;" vertex="1" parent="9z4LvnD-65z1aTD6ECzE-62">
          <mxGeometry x="30" width="150" height="30" as="geometry" />
        </mxCell>
        <mxCell id="9z4LvnD-65z1aTD6ECzE-65" value="" style="shape=partialRectangle;collapsible=0;dropTarget=0;pointerEvents=0;fillColor=none;top=0;left=0;bottom=0;right=0;points=[[0,0.5],[1,0.5]];portConstraint=eastwest;" vertex="1" parent="9z4LvnD-65z1aTD6ECzE-55">
          <mxGeometry y="120" width="180" height="20" as="geometry" />
        </mxCell>
        <mxCell id="9z4LvnD-65z1aTD6ECzE-66" value="" style="shape=partialRectangle;connectable=0;fillColor=none;top=0;left=0;bottom=0;right=0;editable=1;overflow=hidden;" vertex="1" parent="9z4LvnD-65z1aTD6ECzE-65">
          <mxGeometry width="30" height="20" as="geometry" />
        </mxCell>
        <mxCell id="9z4LvnD-65z1aTD6ECzE-67" value="password" style="shape=partialRectangle;connectable=0;fillColor=none;top=0;left=0;bottom=0;right=0;align=left;spacingLeft=6;overflow=hidden;" vertex="1" parent="9z4LvnD-65z1aTD6ECzE-65">
          <mxGeometry x="30" width="150" height="20" as="geometry" />
        </mxCell>
        <mxCell id="9z4LvnD-65z1aTD6ECzE-68" value="profile" style="shape=table;startSize=30;container=1;collapsible=1;childLayout=tableLayout;fixedRows=1;rowLines=0;fontStyle=1;align=center;resizeLast=1;" vertex="1" parent="1">
          <mxGeometry x="260" y="20" width="180" height="160" as="geometry" />
        </mxCell>
        <mxCell id="9z4LvnD-65z1aTD6ECzE-69" value="" style="shape=partialRectangle;collapsible=0;dropTarget=0;pointerEvents=0;fillColor=none;top=0;left=0;bottom=1;right=0;points=[[0,0.5],[1,0.5]];portConstraint=eastwest;" vertex="1" parent="9z4LvnD-65z1aTD6ECzE-68">
          <mxGeometry y="30" width="180" height="30" as="geometry" />
        </mxCell>
        <mxCell id="9z4LvnD-65z1aTD6ECzE-70" value="PK" style="shape=partialRectangle;connectable=0;fillColor=none;top=0;left=0;bottom=0;right=0;fontStyle=1;overflow=hidden;" vertex="1" parent="9z4LvnD-65z1aTD6ECzE-69">
          <mxGeometry width="30" height="30" as="geometry" />
        </mxCell>
        <mxCell id="9z4LvnD-65z1aTD6ECzE-71" value="profile_id" style="shape=partialRectangle;connectable=0;fillColor=none;top=0;left=0;bottom=0;right=0;align=left;spacingLeft=6;fontStyle=5;overflow=hidden;" vertex="1" parent="9z4LvnD-65z1aTD6ECzE-69">
          <mxGeometry x="30" width="150" height="30" as="geometry" />
        </mxCell>
        <mxCell id="9z4LvnD-65z1aTD6ECzE-72" value="" style="shape=partialRectangle;collapsible=0;dropTarget=0;pointerEvents=0;fillColor=none;top=0;left=0;bottom=0;right=0;points=[[0,0.5],[1,0.5]];portConstraint=eastwest;" vertex="1" parent="9z4LvnD-65z1aTD6ECzE-68">
          <mxGeometry y="60" width="180" height="30" as="geometry" />
        </mxCell>
        <mxCell id="9z4LvnD-65z1aTD6ECzE-73" value="" style="shape=partialRectangle;connectable=0;fillColor=none;top=0;left=0;bottom=0;right=0;editable=1;overflow=hidden;" vertex="1" parent="9z4LvnD-65z1aTD6ECzE-72">
          <mxGeometry width="30" height="30" as="geometry" />
        </mxCell>
        <mxCell id="9z4LvnD-65z1aTD6ECzE-74" value="income" style="shape=partialRectangle;connectable=0;fillColor=none;top=0;left=0;bottom=0;right=0;align=left;spacingLeft=6;overflow=hidden;" vertex="1" parent="9z4LvnD-65z1aTD6ECzE-72">
          <mxGeometry x="30" width="150" height="30" as="geometry" />
        </mxCell>
        <mxCell id="9z4LvnD-65z1aTD6ECzE-75" value="" style="shape=partialRectangle;collapsible=0;dropTarget=0;pointerEvents=0;fillColor=none;top=0;left=0;bottom=0;right=0;points=[[0,0.5],[1,0.5]];portConstraint=eastwest;" vertex="1" parent="9z4LvnD-65z1aTD6ECzE-68">
          <mxGeometry y="90" width="180" height="30" as="geometry" />
        </mxCell>
        <mxCell id="9z4LvnD-65z1aTD6ECzE-76" value="" style="shape=partialRectangle;connectable=0;fillColor=none;top=0;left=0;bottom=0;right=0;editable=1;overflow=hidden;" vertex="1" parent="9z4LvnD-65z1aTD6ECzE-75">
          <mxGeometry width="30" height="30" as="geometry" />
        </mxCell>
        <mxCell id="9z4LvnD-65z1aTD6ECzE-77" value="family" style="shape=partialRectangle;connectable=0;fillColor=none;top=0;left=0;bottom=0;right=0;align=left;spacingLeft=6;overflow=hidden;" vertex="1" parent="9z4LvnD-65z1aTD6ECzE-75">
          <mxGeometry x="30" width="150" height="30" as="geometry" />
        </mxCell>
        <mxCell id="9z4LvnD-65z1aTD6ECzE-78" value="" style="shape=partialRectangle;collapsible=0;dropTarget=0;pointerEvents=0;fillColor=none;top=0;left=0;bottom=0;right=0;points=[[0,0.5],[1,0.5]];portConstraint=eastwest;" vertex="1" parent="9z4LvnD-65z1aTD6ECzE-68">
          <mxGeometry y="120" width="180" height="30" as="geometry" />
        </mxCell>
        <mxCell id="9z4LvnD-65z1aTD6ECzE-79" value="" style="shape=partialRectangle;connectable=0;fillColor=none;top=0;left=0;bottom=0;right=0;editable=1;overflow=hidden;" vertex="1" parent="9z4LvnD-65z1aTD6ECzE-78">
          <mxGeometry width="30" height="30" as="geometry" />
        </mxCell>
        <mxCell id="9z4LvnD-65z1aTD6ECzE-80" value="deduction_amount" style="shape=partialRectangle;connectable=0;fillColor=none;top=0;left=0;bottom=0;right=0;align=left;spacingLeft=6;overflow=hidden;" vertex="1" parent="9z4LvnD-65z1aTD6ECzE-78">
          <mxGeometry x="30" width="150" height="30" as="geometry" />
        </mxCell>
        <mxCell id="9z4LvnD-65z1aTD6ECzE-81" value="select" style="shape=table;startSize=30;container=1;collapsible=1;childLayout=tableLayout;fixedRows=1;rowLines=0;fontStyle=1;align=center;resizeLast=1;" vertex="1" parent="1">
          <mxGeometry x="260" y="220" width="180" height="160" as="geometry" />
        </mxCell>
        <mxCell id="9z4LvnD-65z1aTD6ECzE-82" value="" style="shape=partialRectangle;collapsible=0;dropTarget=0;pointerEvents=0;fillColor=none;top=0;left=0;bottom=1;right=0;points=[[0,0.5],[1,0.5]];portConstraint=eastwest;" vertex="1" parent="9z4LvnD-65z1aTD6ECzE-81">
          <mxGeometry y="30" width="180" height="30" as="geometry" />
        </mxCell>
        <mxCell id="9z4LvnD-65z1aTD6ECzE-83" value="PK" style="shape=partialRectangle;connectable=0;fillColor=none;top=0;left=0;bottom=0;right=0;fontStyle=1;overflow=hidden;" vertex="1" parent="9z4LvnD-65z1aTD6ECzE-82">
          <mxGeometry width="30" height="30" as="geometry" />
        </mxCell>
        <mxCell id="9z4LvnD-65z1aTD6ECzE-84" value="select_id" style="shape=partialRectangle;connectable=0;fillColor=none;top=0;left=0;bottom=0;right=0;align=left;spacingLeft=6;fontStyle=5;overflow=hidden;" vertex="1" parent="9z4LvnD-65z1aTD6ECzE-82">
          <mxGeometry x="30" width="150" height="30" as="geometry" />
        </mxCell>
        <mxCell id="9z4LvnD-65z1aTD6ECzE-85" value="" style="shape=partialRectangle;collapsible=0;dropTarget=0;pointerEvents=0;fillColor=none;top=0;left=0;bottom=0;right=0;points=[[0,0.5],[1,0.5]];portConstraint=eastwest;" vertex="1" parent="9z4LvnD-65z1aTD6ECzE-81">
          <mxGeometry y="60" width="180" height="30" as="geometry" />
        </mxCell>
        <mxCell id="9z4LvnD-65z1aTD6ECzE-86" value="" style="shape=partialRectangle;connectable=0;fillColor=none;top=0;left=0;bottom=0;right=0;editable=1;overflow=hidden;" vertex="1" parent="9z4LvnD-65z1aTD6ECzE-85">
          <mxGeometry width="30" height="30" as="geometry" />
        </mxCell>
        <mxCell id="9z4LvnD-65z1aTD6ECzE-87" value="category_1" style="shape=partialRectangle;connectable=0;fillColor=none;top=0;left=0;bottom=0;right=0;align=left;spacingLeft=6;overflow=hidden;" vertex="1" parent="9z4LvnD-65z1aTD6ECzE-85">
          <mxGeometry x="30" width="150" height="30" as="geometry" />
        </mxCell>
        <mxCell id="9z4LvnD-65z1aTD6ECzE-88" value="" style="shape=partialRectangle;collapsible=0;dropTarget=0;pointerEvents=0;fillColor=none;top=0;left=0;bottom=0;right=0;points=[[0,0.5],[1,0.5]];portConstraint=eastwest;" vertex="1" parent="9z4LvnD-65z1aTD6ECzE-81">
          <mxGeometry y="90" width="180" height="30" as="geometry" />
        </mxCell>
        <mxCell id="9z4LvnD-65z1aTD6ECzE-89" value="" style="shape=partialRectangle;connectable=0;fillColor=none;top=0;left=0;bottom=0;right=0;editable=1;overflow=hidden;" vertex="1" parent="9z4LvnD-65z1aTD6ECzE-88">
          <mxGeometry width="30" height="30" as="geometry" />
        </mxCell>
        <mxCell id="9z4LvnD-65z1aTD6ECzE-90" value="category_2" style="shape=partialRectangle;connectable=0;fillColor=none;top=0;left=0;bottom=0;right=0;align=left;spacingLeft=6;overflow=hidden;" vertex="1" parent="9z4LvnD-65z1aTD6ECzE-88">
          <mxGeometry x="30" width="150" height="30" as="geometry" />
        </mxCell>
        <mxCell id="9z4LvnD-65z1aTD6ECzE-91" value="" style="shape=partialRectangle;collapsible=0;dropTarget=0;pointerEvents=0;fillColor=none;top=0;left=0;bottom=0;right=0;points=[[0,0.5],[1,0.5]];portConstraint=eastwest;" vertex="1" parent="9z4LvnD-65z1aTD6ECzE-81">
          <mxGeometry y="120" width="180" height="30" as="geometry" />
        </mxCell>
        <mxCell id="9z4LvnD-65z1aTD6ECzE-92" value="" style="shape=partialRectangle;connectable=0;fillColor=none;top=0;left=0;bottom=0;right=0;editable=1;overflow=hidden;" vertex="1" parent="9z4LvnD-65z1aTD6ECzE-91">
          <mxGeometry width="30" height="30" as="geometry" />
        </mxCell>
        <mxCell id="9z4LvnD-65z1aTD6ECzE-93" value="category_3" style="shape=partialRectangle;connectable=0;fillColor=none;top=0;left=0;bottom=0;right=0;align=left;spacingLeft=6;overflow=hidden;" vertex="1" parent="9z4LvnD-65z1aTD6ECzE-91">
          <mxGeometry x="30" width="150" height="30" as="geometry" />
        </mxCell>
        <mxCell id="9z4LvnD-65z1aTD6ECzE-94" value="Table" style="shape=table;startSize=30;container=1;collapsible=1;childLayout=tableLayout;fixedRows=1;rowLines=0;fontStyle=1;align=center;resizeLast=1;" vertex="1" parent="1">
          <mxGeometry x="510" y="220" width="180" height="260" as="geometry" />
        </mxCell>
        <mxCell id="9z4LvnD-65z1aTD6ECzE-95" value="" style="shape=partialRectangle;collapsible=0;dropTarget=0;pointerEvents=0;fillColor=none;top=0;left=0;bottom=1;right=0;points=[[0,0.5],[1,0.5]];portConstraint=eastwest;" vertex="1" parent="9z4LvnD-65z1aTD6ECzE-94">
          <mxGeometry y="30" width="180" height="30" as="geometry" />
        </mxCell>
        <mxCell id="9z4LvnD-65z1aTD6ECzE-96" value="PK" style="shape=partialRectangle;connectable=0;fillColor=none;top=0;left=0;bottom=0;right=0;fontStyle=1;overflow=hidden;" vertex="1" parent="9z4LvnD-65z1aTD6ECzE-95">
          <mxGeometry width="30" height="30" as="geometry" />
        </mxCell>
        <mxCell id="9z4LvnD-65z1aTD6ECzE-97" value="result_id" style="shape=partialRectangle;connectable=0;fillColor=none;top=0;left=0;bottom=0;right=0;align=left;spacingLeft=6;fontStyle=5;overflow=hidden;" vertex="1" parent="9z4LvnD-65z1aTD6ECzE-95">
          <mxGeometry x="30" width="150" height="30" as="geometry" />
        </mxCell>
        <mxCell id="9z4LvnD-65z1aTD6ECzE-98" value="" style="shape=partialRectangle;collapsible=0;dropTarget=0;pointerEvents=0;fillColor=none;top=0;left=0;bottom=0;right=0;points=[[0,0.5],[1,0.5]];portConstraint=eastwest;" vertex="1" parent="9z4LvnD-65z1aTD6ECzE-94">
          <mxGeometry y="60" width="180" height="30" as="geometry" />
        </mxCell>
        <mxCell id="9z4LvnD-65z1aTD6ECzE-99" value="" style="shape=partialRectangle;connectable=0;fillColor=none;top=0;left=0;bottom=0;right=0;editable=1;overflow=hidden;" vertex="1" parent="9z4LvnD-65z1aTD6ECzE-98">
          <mxGeometry width="30" height="30" as="geometry" />
        </mxCell>
        <mxCell id="9z4LvnD-65z1aTD6ECzE-100" value="result_1_1" style="shape=partialRectangle;connectable=0;fillColor=none;top=0;left=0;bottom=0;right=0;align=left;spacingLeft=6;overflow=hidden;" vertex="1" parent="9z4LvnD-65z1aTD6ECzE-98">
          <mxGeometry x="30" width="150" height="30" as="geometry" />
        </mxCell>
        <mxCell id="9z4LvnD-65z1aTD6ECzE-101" value="" style="shape=partialRectangle;collapsible=0;dropTarget=0;pointerEvents=0;fillColor=none;top=0;left=0;bottom=0;right=0;points=[[0,0.5],[1,0.5]];portConstraint=eastwest;" vertex="1" parent="9z4LvnD-65z1aTD6ECzE-94">
          <mxGeometry y="90" width="180" height="30" as="geometry" />
        </mxCell>
        <mxCell id="9z4LvnD-65z1aTD6ECzE-102" value="" style="shape=partialRectangle;connectable=0;fillColor=none;top=0;left=0;bottom=0;right=0;editable=1;overflow=hidden;" vertex="1" parent="9z4LvnD-65z1aTD6ECzE-101">
          <mxGeometry width="30" height="30" as="geometry" />
        </mxCell>
        <mxCell id="9z4LvnD-65z1aTD6ECzE-103" value="result_1_2" style="shape=partialRectangle;connectable=0;fillColor=none;top=0;left=0;bottom=0;right=0;align=left;spacingLeft=6;overflow=hidden;" vertex="1" parent="9z4LvnD-65z1aTD6ECzE-101">
          <mxGeometry x="30" width="150" height="30" as="geometry" />
        </mxCell>
        <mxCell id="9z4LvnD-65z1aTD6ECzE-104" value="" style="shape=partialRectangle;collapsible=0;dropTarget=0;pointerEvents=0;fillColor=none;top=0;left=0;bottom=0;right=0;points=[[0,0.5],[1,0.5]];portConstraint=eastwest;" vertex="1" parent="9z4LvnD-65z1aTD6ECzE-94">
          <mxGeometry y="120" width="180" height="30" as="geometry" />
        </mxCell>
        <mxCell id="9z4LvnD-65z1aTD6ECzE-105" value="" style="shape=partialRectangle;connectable=0;fillColor=none;top=0;left=0;bottom=0;right=0;editable=1;overflow=hidden;" vertex="1" parent="9z4LvnD-65z1aTD6ECzE-104">
          <mxGeometry width="30" height="30" as="geometry" />
        </mxCell>
        <mxCell id="9z4LvnD-65z1aTD6ECzE-106" value="result_2_1" style="shape=partialRectangle;connectable=0;fillColor=none;top=0;left=0;bottom=0;right=0;align=left;spacingLeft=6;overflow=hidden;" vertex="1" parent="9z4LvnD-65z1aTD6ECzE-104">
          <mxGeometry x="30" width="150" height="30" as="geometry" />
        </mxCell>
        <mxCell id="9z4LvnD-65z1aTD6ECzE-107" value="" style="shape=partialRectangle;collapsible=0;dropTarget=0;pointerEvents=0;fillColor=none;top=0;left=0;bottom=0;right=0;points=[[0,0.5],[1,0.5]];portConstraint=eastwest;" vertex="1" parent="9z4LvnD-65z1aTD6ECzE-94">
          <mxGeometry y="150" width="180" height="30" as="geometry" />
        </mxCell>
        <mxCell id="9z4LvnD-65z1aTD6ECzE-108" value="" style="shape=partialRectangle;connectable=0;fillColor=none;top=0;left=0;bottom=0;right=0;editable=1;overflow=hidden;" vertex="1" parent="9z4LvnD-65z1aTD6ECzE-107">
          <mxGeometry width="30" height="30" as="geometry" />
        </mxCell>
        <mxCell id="9z4LvnD-65z1aTD6ECzE-109" value="result_2_2" style="shape=partialRectangle;connectable=0;fillColor=none;top=0;left=0;bottom=0;right=0;align=left;spacingLeft=6;overflow=hidden;" vertex="1" parent="9z4LvnD-65z1aTD6ECzE-107">
          <mxGeometry x="30" width="150" height="30" as="geometry" />
        </mxCell>
        <mxCell id="9z4LvnD-65z1aTD6ECzE-126" value="result_3_1" style="shape=partialRectangle;connectable=0;fillColor=none;top=0;left=0;bottom=0;right=0;align=left;spacingLeft=6;overflow=hidden;" vertex="1" parent="1">
          <mxGeometry x="540" y="400" width="150" height="30" as="geometry" />
        </mxCell>
      </root>
    </mxGraphModel>
  </diagram>
</mxfile>
